PathFileType	3	(X/Y/Z)	D:\Jess\Healthy\Labelled\HA03\20250325\SRRun01.trc
DataRate	CameraRate	NumFrames	NumMarkers	Units	OrigDataRate	OrigDataStartFrame	OrigNumFrames
250.0	250.0	4	33	mm	250.0	36250	2501
Frame#	Time	C7			T10			CLAV			LSHO			RSHO			LASIS			RASIS			LPSIS			RPSIS			LILCR			RILCR			LGTR			LTHI			LLTHI			LLEP			LPSH			LLSH			LDSH			LLMAL			LTOE			L5TH			LHEE			RGTR			RTHI			RLTHI			RLEP			RPSH			RLSH			RDSH			RLMAL			RTOE			R5TH			RHEE			
		X1	Y1	Z1	X2	Y2	Z2	X3	Y3	Z3	X4	Y4	Z4	X5	Y5	Z5	X6	Y6	Z6	X7	Y7	Z7	X8	Y8	Z8	X9	Y9	Z9	X10	Y10	Z10	X11	Y11	Z11	X12	Y12	Z12	X13	Y13	Z13	X14	Y14	Z14	X15	Y15	Z15	X16	Y16	Z16	X17	Y17	Z17	X18	Y18	Z18	X19	Y19	Z19	X20	Y20	Z20	X21	Y21	Z21	X22	Y22	Z22	X23	Y23	Z23	X24	Y24	Z24	X25	Y25	Z25	X26	Y26	Z26	X27	Y27	Z27	X28	Y28	Z28	X29	Y29	Z29	X30	Y30	Z30	X31	Y31	Z31	X32	Y32	Z32	X33	Y33	Z33	

1251	144.996	868.8719651528634	1454.671817913982	-311.4295341886301	788.3237323132902	1202.640768298151	-294.0227942538705	989.3122107180849	1356.951632059284	-280.4040183723272	960.0287261771784	1424.36549600876	-451.5488397443121	897.2999557333658	1439.867555102874	-148.6251291678697	911.3794135553836	1005.29418703696	-380.102710666758	919.4649269594171	1012.339302939024	-197.7576703347221	752.8073117508861	1056.952254150164	-302.527842387903	753.6949357697523	1055.865227750738	-254.984558458179	857.4613466034593	1042.504083561128	-423.7130572445272	856.5684291284234	1046.836388828911	-138.1725182588156	880.3827606154961	929.162159798244	-435.5098988203985	891.8358948729643	715.239500292549	-378.425429949966	794.838541673498	663.3802486703016	-425.3769220760457	743.9945485477116	518.4644625672904	-398.5826320565984	742.100031800706	395.5220108136116	-345.468433088367	620.5685351517881	323.9502619486708	-386.9766408218685	633.4731314864238	232.2080534961036	-331.7706960126739	532.6799625123176	159.1690885193061	-355.8848670427037	652.961080501827	56.90557568731391	-319.6618356819426	615.1174150454832	53.13389996184804	-362.8037367323595	461.9331868467769	169.2894306056783	-305.9579891471769	854.6528703070462	949.3097877472597	-115.3792104859981	1037.558263964921	785.2236617712515	-215.5178559303676	1056.321521661381	678.6176959577809	-142.1514247544675	1079.082133784068	573.1978032682434	-159.3155471565728	1040.591106963918	454.9692005653035	-212.2069615367917	925.8902488292559	415.0906056949322	-140.7971553944435	874.4789808542889	305.5248681705762	-193.4683539061663	784.5792879674573	280.8233757424425	-158.1278705296482	847.124365876806	135.1921483943604	-180.5394756137112	798.0709972960095	148.8637601853395	-140.5617154303455	714.258418493937	316.8206254972684	-199.7468508354179	
1252	145	869.1614775281179	1458.125113304352	-311.2729810154409	789.4043587095733	1206.041295597377	-294.8599809397167	989.6048606427905	1361.040202691101	-279.4722429902757	961.1835334126945	1428.409954333256	-450.6968778015413	896.4432433282341	1443.638323691657	-148.5947345282163	912.8629364943366	1007.843013188836	-379.7490781231605	919.8588432364675	1015.907287838247	-197.5934366857788	754.304327797803	1060.83332914841	-303.4959093060474	754.8562990510495	1059.832702223615	-255.893842991012	860.1539024541174	1046.107316401782	-423.5874814393867	856.825625002322	1050.856411831969	-138.4601224754866	881.4383223383934	931.5693280378134	-435.2942502883866	889.2196535616364	717.3670794235129	-378.0468596652562	791.0264081312573	667.2577020911762	-424.9649590518933	737.5304967756546	523.2184345083449	-398.2740378014639	735.0819494502529	400.1028841061698	-345.6752633358846	613.4720140662421	328.8883711177664	-387.3264450774124	626.9290627564094	236.4746256525496	-332.7267426947833	526.255731675152	163.3609905766417	-356.7024562816766	643.5757250365648	57.01131069176877	-319.9554719999774	605.59764828049	54.10521438839966	-363.0129879925153	456.3207735869081	175.5646008716497	-306.7357408764587	854.7275900541994	953.5534452761683	-115.2667854863382	1037.796191050386	789.424214671761	-215.4120096501337	1056.556731519059	682.7185900567507	-142.1483143558809	1079.287610528687	577.1377761498446	-159.1028473650145	1044.187852525886	457.3642585506729	-211.9448659050217	930.4014729415592	413.4841872835279	-141.4144121643143	883.3224144480545	302.0833952683788	-194.3508341360793	793.9668363393479	274.1070770594081	-159.8213354385436	862.0949949926288	130.8895946959412	-181.6703632092574	812.0651193564895	142.5813367538892	-142.3100284858746	722.7583909098372	307.5288834662661	-202.1429320435846	
1253	145.004	869.4505088172858	1461.516036770341	-311.117393222821	790.4882122441064	1209.397506483227	-295.688062186914	989.8925404413767	1365.08188812992	-278.5510280275317	962.3010236696124	1432.386166270646	-449.851861387711	895.6033929128286	1447.343026954619	-148.5820289422123	914.3709849099004	1010.307023679453	-379.3402248605788	920.2806351011332	1019.392385934533	-197.3861838584159	755.8494720362349	1064.694209497463	-304.4715649008543	756.0742252785874	1063.773656392085	-256.8122167336833	862.9068901566778	1049.627549065319	-423.4297261207128	857.1105413753396	1054.822217245355	-138.7410009596184	882.5431781474661	933.8968110954027	-435.0541569942276	886.729655480065	719.474710725815	-377.7239661295868	787.3948774685368	671.1063198937495	-424.603171989139	731.3633160733978	527.9539417013941	-398.0069039334501	728.3688958669408	404.688101496079	-345.8969212629499	606.7191580204825	333.8087174741984	-387.7340254419324	620.6909049926123	240.7610719701445	-333.698849951198	520.1815202379896	167.6132341417388	-357.5789630325265	634.3491478652725	57.26381279887346	-320.2781403808339	596.2701550077013	55.21549810772053	-363.2463745077838	451.0955257028075	181.9786114365737	-307.6160846684102	854.7434539129048	957.7103531825489	-115.1473709905834	1038.024121488408	793.4559610006653	-215.2294034970951	1056.522152604954	686.5590793063728	-142.1613176128438	1079.186676810363	580.8176012184548	-158.9101230464265	1047.559583291068	459.5952252621622	-211.6800254146979	934.824749275093	411.7266146614889	-142.051350885393	892.2013752461726	298.6119285605447	-195.2200536419362	803.5208953298662	267.3665032976178	-161.5177884116292	877.1816204297099	126.7994155463546	-182.7458301950717	826.2650592859009	136.4771078908499	-144.0073852127648	731.5249041127206	298.1514867897247	-204.559538989178	
1254	145.008	869.7364411483928	1464.829852191696	-310.9644866615698	791.5704563375443	1212.693702465218	-296.5028334781273	990.1730453051334	1369.060341358591	-277.6407025179725	963.3792831912335	1436.279372516701	-449.015454757817	894.7770067677674	1450.968297894407	-148.5853092921504	915.8878943832647	1012.67986403632	-378.8912263014252	920.7294269665335	1022.777320527587	-197.1514052051203	757.4315306370904	1068.514669371754	-305.4442549900133	757.3408374500602	1067.668608061573	-257.7297013073582	865.688626711341	1053.045746263451	-423.245226168906	857.4324438993773	1058.711929678544	-139.0156540242469	883.6800976340389	936.1378637584273	-434.7996848891194	884.3606839548079	721.5557854829621	-377.449825047942	783.9479199790663	674.9067156384524	-424.2900600975173	725.5069878432672	532.6443696068474	-397.7770855727961	721.968962933867	409.2515214654566	-346.1175557620322	600.3205601381751	338.6852815209381	-388.1951530662768	614.7491449290659	245.047676805793	-334.6710388679922	514.4454222211057	171.913984364498	-358.5108052902094	625.2789869195896	57.68201235008297	-320.6299813567333	587.1320685973908	56.47698053964385	-363.5016066008811	446.2464716665177	188.506734787436	-308.5992277239154	854.7149500065449	961.7601483389176	-115.0258448222333	1038.250679287249	797.3004223318723	-214.9732804753955	1056.215438488224	690.1203613925327	-142.1934051013907	1078.782497696418	584.2186593663656	-158.7393565211	1050.701909833697	461.6536872325889	-211.4172942095468	939.160793354275	409.8149680332107	-142.7035264146742	901.1053786936581	295.1205760374122	-196.0741328168664	813.2376325740383	260.616611720309	-163.2056046357505	892.3663949706854	122.9436917958666	-183.7799685932128	840.663237207253	130.5738599347218	-145.6548264166923	740.5515582766533	288.7087990711861	-206.9649102537709	
